<?xml version="1.0" standalone="no"?>
<!DOCTYPE svg PUBLIC "-//W3C//DTD SVG 20010904//EN"
 "http://www.w3.org/TR/2001/REC-SVG-20010904/DTD/svg10.dtd">
<svg version="1.0" xmlns="http://www.w3.org/2000/svg"
 width="260.000000pt" height="260.000000pt" viewBox="0 0 260.000000 260.000000"
 preserveAspectRatio="xMidYMid meet">
<metadata>
Created by potrace 1.11, written by Peter Selinger 2001-2013
</metadata>
<g transform="translate(0.000000,260.000000) scale(0.100000,-0.100000)"
fill="#000000" stroke="none">
<path d="M0 1300 l0 -1300 365 0 c201 0 365 2 365 5 0 2 -9 19 -20 37 -24 39
-60 150 -60 184 0 21 4 23 24 18 13 -3 70 6 126 20 57 14 114 26 128 26 14 0
34 7 44 16 14 13 21 14 32 5 8 -6 18 -11 22 -9 16 4 54 -13 49 -22 -3 -4 2 -7
10 -6 7 0 14 -3 14 -8 -1 -5 5 -12 12 -17 7 -4 14 -20 15 -36 2 -15 6 -57 10
-93 4 -36 8 -77 8 -92 l1 -28 218 0 217 0 -2 30 c-1 16 -6 30 -11 30 -7 0 -4
19 9 55 3 6 -8 23 -22 39 -23 24 -24 27 -7 22 13 -4 20 -2 20 8 0 9 -5 12 -10
9 -6 -4 -8 3 -5 15 4 12 2 22 -3 22 -5 0 -9 -6 -9 -14 0 -8 -5 -18 -11 -21
-19 -12 -21 3 -4 29 24 36 15 33 -36 -14 -32 -29 -52 -39 -71 -38 -16 1 -28 8
-28 16 0 7 -4 11 -9 8 -20 -13 4 51 28 72 25 23 22 24 -26 5 -27 -10 -12 2 26
22 18 9 30 12 27 6 -10 -15 5 -13 28 4 28 21 55 19 186 -14 75 -19 121 -26
136 -21 11 5 42 32 67 60 l45 53 18 -34 c9 -19 17 -58 18 -89 1 -50 -4 -63
-44 -125 -25 -38 -58 -84 -74 -102 l-28 -33 406 0 406 0 0 1300 0 1300 -1300
0 -1300 0 0 -1300z m537 698 c-3 -8 -6 -5 -6 6 -1 11 2 17 5 13 3 -3 4 -12 1
-19z m113 -32 c0 -3 -4 -8 -10 -11 -5 -3 -10 -1 -10 4 0 6 5 11 10 11 6 0 10
-2 10 -4z m-146 -49 c2 -15 0 -27 -5 -27 -5 0 -9 14 -9 32 0 37 7 34 14 -5z
m136 -1 c0 -3 -4 -8 -10 -11 -5 -3 -10 -1 -10 4 0 6 5 11 10 11 6 0 10 -2 10
-4z m-30 -43 c0 -22 -2 -25 -10 -13 -13 20 -13 40 0 40 6 0 10 -12 10 -27z
m15 -45 c11 1 15 -2 9 -6 -6 -4 -13 -15 -17 -25 -6 -15 -3 -17 15 -11 21 6 21
5 9 -10 -8 -10 -23 -15 -33 -13 -10 3 -16 2 -13 -2 2 -5 -21 -26 -52 -47 -31
-21 -69 -52 -85 -68 -16 -16 -30 -27 -32 -25 -7 8 14 49 25 49 14 0 75 51 72
61 -1 4 6 5 16 2 18 -5 28 13 47 77 6 22 5 23 -10 11 -9 -7 -16 -9 -16 -4 0
16 13 24 29 17 9 -4 25 -6 36 -6z m1319 -61 c5 -45 3 -58 -6 -55 -8 3 -14 28
-16 69 -4 79 13 69 22 -14z m-1254 29 c-7 -7 -14 -6 -21 1 -9 9 -7 12 9 10 14
-1 18 -5 12 -11z m1219 -294 c6 -37 5 -52 -4 -56 -8 -3 -12 4 -12 17 0 12 -3
42 -7 67 -6 34 -5 42 3 34 7 -6 15 -34 20 -62z m-1111 49 c30 -1 33 -3 26 -23
-4 -13 -20 -35 -35 -49 -16 -15 -29 -35 -29 -46 1 -15 5 -13 25 10 14 15 25
24 25 20 0 -5 -5 -14 -12 -21 -24 -24 1 -22 27 2 33 31 58 34 53 8 -4 -25 19
-52 46 -53 19 -1 18 -2 -4 -9 -22 -6 -23 -8 -7 -15 13 -6 15 -11 6 -21 -18
-22 0 -34 51 -33 45 2 54 6 90 45 22 24 41 48 41 54 1 5 2 14 3 19 0 5 4 13 9
17 12 12 8 41 -8 54 -21 18 -19 27 9 32 31 6 64 -12 79 -43 16 -32 62 -38 77
-10 15 29 35 26 38 -6 1 -18 22 -47 59 -85 48 -49 69 -62 131 -82 67 -21 71
-22 53 -4 -26 23 -26 34 -2 48 12 6 17 17 14 28 -3 13 8 27 39 47 24 16 46 28
51 27 13 -4 8 16 -9 32 -8 9 -12 16 -7 16 5 0 16 -9 26 -20 9 -11 21 -20 27
-20 12 0 12 -2 1 38 -12 39 -13 39 91 45 84 4 85 4 95 -57 7 -43 -15 -153 -42
-205 -13 -25 -41 -62 -62 -82 -44 -42 -142 -109 -160 -109 -6 0 -13 -5 -15
-11 -2 -7 -12 1 -23 17 l-18 29 22 -19 21 -20 -6 40 c-4 28 -16 48 -42 71 -47
41 -59 29 -28 -28 20 -36 22 -46 11 -56 -10 -9 -19 -5 -42 20 -40 43 -76 73
-143 119 -30 21 -63 44 -72 50 -23 16 -23 24 2 24 11 0 20 -4 20 -8 0 -4 4 -8
8 -8 21 0 6 32 -24 51 -43 26 -83 29 -98 7 -8 -14 -6 -21 9 -34 17 -13 17 -15
3 -10 -10 3 -18 1 -18 -5 0 -6 -4 -7 -10 -4 -5 3 -10 2 -10 -2 0 -5 -13 -16
-29 -26 -38 -22 -145 -127 -201 -195 -38 -47 -44 -51 -55 -36 -8 12 -14 13
-19 6 -4 -6 -14 -8 -24 -5 -15 6 -15 5 -3 -10 20 -25 11 -27 -24 -6 -25 16
-27 19 -10 19 12 1 -1 12 -35 29 -69 36 -92 61 -140 152 l-39 74 -1 -49 c0
-32 8 -64 24 -95 13 -25 38 -75 54 -111 43 -91 44 -93 75 -81 14 6 29 6 31 2
7 -11 -49 -22 -71 -14 -12 5 -14 3 -8 -7 5 -9 4 -11 -3 -6 -6 4 -37 -1 -68
-10 -55 -16 -58 -16 -71 2 -23 32 -85 245 -91 311 -7 85 13 117 69 111 42 -4
45 -1 28 36 -10 21 -8 33 11 73 12 26 26 53 30 58 7 9 63 10 208 6z m816 -70
c17 -19 17 -20 -3 -30 -11 -6 -27 -11 -37 -11 -13 0 -14 3 -5 14 6 8 11 18 10
22 -5 30 11 32 35 5z m417 -30 c74 -60 -13 -451 -103 -465 -7 -1 -19 -5 -25
-9 -13 -8 -75 5 -118 25 l-24 11 30 52 c16 29 47 97 69 151 38 97 39 98 50 70
6 -16 14 -49 17 -73 5 -40 7 -42 22 -29 10 9 18 34 19 56 3 36 -1 42 -32 60
-28 17 -35 28 -38 60 -2 28 0 40 9 40 7 0 13 5 13 10 0 6 7 22 16 35 20 31 62
33 95 6z m-901 -280 c0 -10 -15 -51 -34 -92 -19 -41 -37 -90 -41 -109 -4 -19
-12 -43 -17 -53 -8 -17 -12 -16 -43 10 -18 15 -34 37 -34 48 -1 11 19 42 44
70 25 27 45 52 45 56 0 12 60 89 70 89 6 0 10 -8 10 -19z m269 -64 c14 -17 45
-50 69 -73 23 -23 42 -46 42 -52 0 -10 -52 -32 -77 -32 -7 0 -16 8 -20 18 -3
9 -24 36 -45 60 -47 52 -63 89 -47 108 16 20 47 8 78 -29z m-431 -13 c-18 -25
-42 -51 -53 -57 -19 -9 -19 -9 -6 9 20 25 84 94 89 94 2 0 -12 -21 -30 -46z
m537 5 c11 -17 -1 -21 -15 -4 -8 9 -8 15 -2 15 6 0 14 -5 17 -11z m138 -18
c-15 -16 -30 -27 -32 -25 -6 6 40 54 51 54 5 0 -3 -13 -19 -29z m-42 -49 c-6
-2 -11 -11 -12 -20 -1 -9 -5 -3 -9 13 -4 17 -11 39 -15 50 -5 15 0 12 20 -10
16 -17 23 -31 16 -33z m-741 -66 c-9 -8 -11 -6 -5 12 3 12 2 22 -3 22 -6 0 -7
10 -4 23 5 20 7 19 14 -12 7 -23 6 -37 -2 -45z m758 4 c-29 -33 -54 -60 -55
-60 -9 0 30 59 57 88 54 57 53 34 -2 -28z m-798 8 c0 -5 11 -24 25 -42 21 -28
66 -120 52 -106 -3 3 -28 39 -55 81 -31 47 -44 76 -36 76 8 0 14 -4 14 -9z
m1086 -49 c-15 -12 -42 -44 -61 -72 -19 -29 -35 -45 -35 -36 0 20 52 92 82
113 33 24 45 19 14 -5z m-1347 -35 c17 -14 44 -53 60 -87 47 -101 45 -118 -3
-27 -25 47 -59 97 -76 113 -38 34 -22 36 19 1z m1377 -79 c3 -37 7 -71 9 -74
2 -4 0 -25 -5 -49 -4 -23 -3 -42 1 -42 5 0 10 10 10 23 1 16 3 17 6 5 6 -24
-32 -158 -63 -225 -14 -29 -38 -68 -52 -85 -15 -18 -25 -34 -22 -37 3 -3 -7
-7 -22 -9 -91 -11 -78 241 22 445 38 76 81 128 103 120 5 -1 11 -34 13 -72z
m-1325 -70 c52 -113 79 -214 86 -327 8 -125 -12 -157 -68 -107 -13 11 -18 18
-12 14 9 -4 11 -1 7 9 -3 9 -11 13 -17 9 -6 -3 -7 -1 -3 5 4 6 -4 33 -17 59
-44 87 -98 283 -67 243 9 -12 10 -11 5 7 -10 34 -7 168 4 202 5 16 50 -48 82
-114z m1904 -549 l50 -13 3 -67 c3 -77 2 -78 -91 -80 -86 -1 -289 13 -296 20
-5 5 253 -4 294 -10 6 0 11 31 13 72 l3 72 -43 1 c-24 1 -95 5 -158 9 l-115 7
145 1 c92 1 163 -4 195 -12z m-263 -66 c-4 -30 -4 -30 42 -30 25 0 46 5 46 10
0 6 -4 10 -10 10 -5 0 -10 5 -10 10 0 18 18 11 25 -10 7 -21 35 -28 35 -9 0 5
-4 7 -10 4 -5 -3 -10 0 -10 8 0 27 26 13 28 -15 l2 -28 -62 6 c-35 3 -69 7
-75 10 -14 4 -18 46 -6 57 10 10 10 9 5 -23z"/>
<path d="M1332 1320 c0 -14 2 -19 5 -12 2 6 2 18 0 25 -3 6 -5 1 -5 -13z"/>
<path d="M487 1314 c-6 -7 -2 -41 10 -74 7 -20 21 14 22 53 1 25 -16 36 -32
21z"/>
<path d="M1982 1417 c-8 -9 -7 -25 5 -57 9 -25 17 -73 17 -107 1 -91 19 -48
24 60 3 60 1 92 -8 102 -15 18 -24 19 -38 2z"/>
<path d="M1926 615 c-3 -9 -6 -22 -5 -28 0 -7 5 -1 10 12 5 13 8 26 5 28 -2 2
-6 -3 -10 -12z"/>
<path d="M1640 19 c0 -5 -4 -7 -10 -4 -5 3 -10 2 -10 -3 0 -6 17 -10 38 -9 20
0 29 2 20 4 -10 3 -18 9 -18 14 0 5 -4 9 -10 9 -5 0 -10 -5 -10 -11z"/>
</g>
</svg>
